<?xml version="1.0" encoding="utf-8"?>
<!-- Generator: Adobe Illustrator 19.0.0, SVG Export Plug-In . SVG Version: 6.00 Build 0)  -->
<svg version="1.1" id="图层_1" xmlns="http://www.w3.org/2000/svg" xmlns:xlink="http://www.w3.org/1999/xlink" x="0px" y="0px"
	 viewBox="-231 317 18 18" style="enable-background:new -231 317 18 18;" xml:space="preserve">
<style type="text/css">
	.st0{fill:#FFD100;}
</style>
<path id="Graphic" class="st0" d="M-213.3,324.7c-0.7,0.3-1.4,0.4-2.2,0.5c1.3-1.8,2.1-4.1,2.1-6.5c0-0.2,0-0.3,0-0.5
	c0-0.1-0.1-0.2-0.2-0.1c-1.5,1.7-3.5,2.8-5.7,3.2c0.3-0.7,0.5-1.4,0.5-2.2c0-0.7-0.1-1.3-0.3-1.9c0-0.1-0.2-0.1-0.3,0
	c-0.8,1.9-2.5,2.8-4.4,3.2c-4,0.7-7,3.2-7,7.2s3.1,7.2,7,7.2c3.4,0,6.2-2.5,6.8-5.8c1.8-0.7,3.2-2.2,3.8-4.1
	C-213.1,324.8-213.2,324.7-213.3,324.7z M-227.8,328.9c0,0-0.2,0.6-0.8,0.6c-0.1,0-0.2,0-0.4-0.1c-0.7-0.2-1-1.5-1-1.6v-0.1l0,0l0,0
	c0,0,0.5,0.5,1,0.7C-228.5,328.7-228.3,328.8-227.8,328.9C-227.8,328.8-227.8,328.8-227.8,328.9L-227.8,328.9z M-220.9,327.4
	c0,0-0.2,0.5-0.5,1.1c-0.5,0.7-1.1,1.2-1.7,1.4c-0.2,0.1-0.4,0.1-0.7,0.1c-1.2,0-1.8-0.9-1.8-0.9s0,0,0-0.1c0,0,0,0,0.1,0
	c0.8-0.1,0.9-0.1,1.7-0.4C-222.7,328.2-221,327.3-220.9,327.4C-221,327.3-221,327.3-220.9,327.4C-221,327.3-221,327.3-220.9,327.4
	C-220.9,327.3-220.9,327.3-220.9,327.4z"/>
</svg>
