<?xml version="1.0" encoding="UTF-8"?>
<svg width="20px" height="17px" viewBox="0 0 20 17" version="1.1" xmlns="http://www.w3.org/2000/svg" xmlns:xlink="http://www.w3.org/1999/xlink">
    <!-- Generator: Sketch 47.1 (45422) - http://www.bohemiancoding.com/sketch -->
    <title>Group</title>
    <desc>Created with Sketch.</desc>
    <defs></defs>
    <g id="Page-1" stroke="none" stroke-width="1" fill="none" fill-rule="evenodd">
        <g id="Group">
            <g id="sale" fill-rule="nonzero" fill="#E22C29">
                <path d="M2.22222222,6.65181577e-16 L17.7777778,8.31476971e-17 L17.7777778,0 C19.0050772,-2.29960275e-16 20,1.01482123 20,2.26666667 L20,11.5122807 L20,11.5122807 C20,12.7641261 19.0050772,13.7789473 17.7777778,13.7789473 L3.15555327,13.7789473 L2.46716228e-16,16.7614035 L4.60068696e-16,2.26666667 L0,2.26666667 C-1.50300833e-16,1.01482123 0.994922778,2.29960275e-16 2.22222222,6.65181577e-16 Z" id="Rectangle-18"></path>
            </g>
            <path d="M5.41820152,5.33550489 C5.07258938,5.83713355 4.69122427,6.32681868 4.28602384,6.79261672 L4,5.88490771 C5.16793066,4.46362649 6.01408451,2.8393051 6.53846154,1 L7.31310943,1.35830619 C7.02708559,2.2660152 6.68147346,3.12595005 6.26435536,3.93811075 L6.26435536,11.9761129 L5.41820152,11.9761129 L5.41820152,5.33550489 Z M8.08775731,1.47774159 L14.1300108,1.47774159 L14.1300108,5.31161781 L11.6988082,5.31161781 L11.6988082,7.23452769 L14.4875406,7.23452769 L14.4875406,8.0228013 L11.6988082,8.0228013 L11.6988082,10.8295331 C12.127844,10.9011944 12.6403034,10.937025 13.2361863,10.9609121 C13.9750813,10.9609121 14.5709642,10.9489685 15,10.9250814 L14.8450704,11.7491857 L13.6294691,11.7491857 C11.9729144,11.7372421 10.8526544,11.558089 10.2686891,11.2236699 C9.55362947,10.8534202 8.9815818,10.2323561 8.56446371,9.36047774 C8.20693391,10.3995657 7.7659805,11.2833876 7.24160347,12 L6.69339112,11.3192182 C7.56338028,10.053203 8.15926327,8.33333333 8.46912243,6.1834962 L9.27952329,6.32681868 C9.17226436,7.04343105 9.0411701,7.70032573 8.87432286,8.32138979 C9.05308776,8.834962 9.29144095,9.27687296 9.58938245,9.65906623 C9.9588299,10.1129207 10.375948,10.4234528 10.8526544,10.6145494 L10.8526544,5.31161781 L8.08775731,5.31161781 L8.08775731,1.47774159 Z M13.2957746,4.51140065 L13.2957746,2.2660152 L8.9219935,2.2660152 L8.9219935,4.51140065 L13.2957746,4.51140065 Z" id="促" fill="#FFFFFF"></path>
        </g>
    </g>
</svg>