<?xml version="1.0" encoding="UTF-8"?>
<svg width="72px" height="72px" viewBox="0 0 72 72" version="1.1" xmlns="http://www.w3.org/2000/svg" xmlns:xlink="http://www.w3.org/1999/xlink">
    <!-- Generator: Sketch 46.2 (44496) - http://www.bohemiancoding.com/sketch -->
    <title>Group</title>
    <desc>Created with Sketch.</desc>
    <defs>
        <rect id="path-1" x="0" y="0" width="1386" height="985"></rect>
    </defs>
    <g id="Page-1" stroke="none" stroke-width="1" fill="none" fill-rule="evenodd">
        <g id="Artboard" transform="translate(-529.000000, -250.000000)">
            <g id="Rectangle">
                <use fill="#D8D8D8" fill-rule="evenodd" xlink:href="#path-1"></use>
                <rect stroke="#979797" stroke-width="1" x="0.5" y="0.5" width="1385" height="984"></rect>
            </g>
            <path d="M207,250 L599,250 L599,250 C601.209139,250 603,251.790861 603,254 L603,779 L603,779 C603,781.209139 601.209139,783 599,783 L207,783 L207,783 C204.790861,783 203,781.209139 203,779 L203,254 L203,254 C203,251.790861 204.790861,250 207,250 Z" id="Rectangle-2-Copy-4" fill="#FFFFFF"></path>
            <g id="Group" transform="translate(529.000000, 250.000000)">
                <g id="Page-1" transform="translate(15.000000, 13.000000)" fill="#FFD100">
                    <path d="M0.00723077037,19.5906877 L19.5659223,19.5906877 L19.5659223,0.0198243621 L0.00723077037,0.0198243621 L0.00723077037,19.5906877 Z M3.89455318,15.6796243 L15.6560038,15.6796243 L15.6560038,3.93763652 L3.89455318,3.93763652 L3.89455318,15.6796243 Z" id="Fill-1"></path>
                    <polygon id="Fill-2" points="7.82977944 11.765548 11.7379506 11.765548 11.7379506 7.85171278 7.82977944 7.85171278"></polygon>
                    <path d="M23.4936768,19.5906877 L43.0597799,19.5906877 L43.0597799,0.0198243621 L23.4936768,0.0198243621 L23.4936768,19.5906877 Z M27.3881697,15.6796243 L39.1500421,15.6796243 L39.1500421,3.93763652 L27.3881697,3.93763652 L27.3881697,15.6796243 Z" id="Fill-3"></path>
                    <polygon id="Fill-4" points="31.3236973 11.765548 35.2316274 11.765548 35.2316274 7.85171278 31.3236973 7.85171278"></polygon>
                    <path d="M0.00723077037,43.0810504 L19.5669467,43.0810504 L19.5669467,23.510187 L0.00723077037,23.510187 L0.00723077037,43.0810504 Z M3.89545703,39.1699267 L15.6567268,39.1699267 L15.6567268,27.4279992 L3.89545703,27.4279992 L3.89545703,39.1699267 Z" id="Fill-5"></path>
                    <polygon id="Fill-6" points="7.83074354 35.2559107 11.7389147 35.2559107 11.7389147 31.3418344 7.83074354 31.3418344"></polygon>
                    <polygon id="Fill-7" transform="translate(33.275692, 33.300204) rotate(90.000000) translate(-33.275692, -33.300204) " points="39.1436127 23.5193822 39.1436127 27.4332174 35.2354416 27.4332174 35.2354416 23.5193822 23.4936949 23.5193822 23.4936949 43.0810263 27.3996968 43.0810263 27.3996968 31.3430155 31.3079281 31.3430155 31.3079281 35.2554045 43.057689 35.2554045 43.057689 23.5193822"></polygon>
                    <polygon id="Fill-8" points="31.3227332 43.0774953 35.230844 43.0774953 35.230844 39.163419 31.3227332 39.163419"></polygon>
                    <polygon id="Fill-9" points="39.1435946 43.0774953 43.0520068 43.0774953 43.0520068 39.163419 39.1435946 39.163419"></polygon>
                </g>
                <polygon id="Rectangle-11" fill="#FFFFFF" points="0 0 71.2421875 71.2421875 0 71.2421875"></polygon>
            </g>
        </g>
    </g>
</svg>